<svg xmlns="http://www.w3.org/2000/svg" xmlns:xlink="http://www.w3.org/1999/xlink" width="170" zoomAndPan="magnify" viewBox="0 0 127.5 127.499994" height="170" preserveAspectRatio="xMidYMid meet" version="1.0"><defs><clipPath id="b2251db01a"><path d="M 0.8125 0 L 109.832031 0 L 109.832031 126.941406 L 0.8125 126.941406 Z M 0.8125 0 " clip-rule="nonzero"/></clipPath><clipPath id="b407feef28"><rect x="0" width="111" y="0" height="127"/></clipPath></defs><g transform="matrix(1, 0, 0, 1, 8, 0.000000000000007293)"><g clip-path="url(#b407feef28)"><g clip-path="url(#b2251db01a)"><path fill="#000000" d="M 49.777344 126.941406 L 2.960938 98.640625 L 17.496094 91.351562 Z M 0.820312 94.496094 L 0.820312 39.886719 L 15.203125 87.289062 Z M 0.820312 36.050781 L 0.820312 32.90625 C 0.820312 32.136719 1.125 31.523438 1.585938 31.066406 L 52.988281 18.410156 L 52.988281 0 L 2.65625 30.375 L 18.566406 82.6875 L 50.769531 23.699219 Z M 57.65625 0 L 108.0625 30.449219 L 91.921875 82.761719 L 59.796875 23.546875 L 109.824219 35.742188 L 109.824219 32.90625 C 109.824219 31.984375 109.363281 31.292969 108.75 30.835938 L 108.523438 30.757812 L 57.65625 18.332031 Z M 109.824219 40.421875 L 109.824219 94.34375 L 95.289062 87.289062 Z M 107.679688 98.5625 L 60.945312 126.789062 L 93.070312 91.351562 Z M 87.105469 90.816406 L 23.386719 90.816406 L 55.285156 126.175781 Z M 55.359375 24.929688 L 21.933594 86.214844 L 88.632812 86.214844 Z M 55.359375 24.929688 " fill-opacity="1" fill-rule="evenodd"/></g></g></g></svg>