<svg xmlns="http://www.w3.org/2000/svg" xmlns:xlink="http://www.w3.org/1999/xlink" width="1920" zoomAndPan="magnify" viewBox="0 0 1440 809.999993" height="1080" preserveAspectRatio="xMidYMid meet" version="1.0"><path fill="#ffffff" d="M 472.132812 318.78125 L 422.382812 270.078125 L 422.121094 307.523438 C 421.859375 341.820312 422.121094 345.226562 423.429688 347.84375 C 424.476562 349.675781 428.929688 353.082031 436 357.269531 L 446.996094 363.816406 L 401.175781 363.816406 C 371.066406 363.816406 355.878906 363.554688 356.664062 362.769531 C 357.449219 362.246094 362.164062 359.363281 367.136719 356.484375 C 381.539062 347.84375 380.230469 355.4375 380.492188 286.050781 C 380.753906 253.320312 380.492188 224.257812 380.230469 221.378906 C 379.441406 214.832031 376.824219 211.167969 369.492188 205.929688 L 363.734375 202.003906 L 356.664062 206.453125 C 352.476562 209.074219 349.070312 212.214844 348.023438 213.785156 C 346.714844 216.140625 346.453125 224.78125 346.191406 265.890625 L 345.667969 315.375 L 343.050781 323.230469 C 336.503906 342.867188 320.007812 357.792969 298.277344 363.292969 C 289.898438 365.386719 269.472656 366.171875 260.046875 364.863281 C 238.316406 361.460938 217.632812 347.320312 209.777344 330.824219 C 204.277344 319.042969 204.015625 316.164062 203.492188 264.058594 C 202.96875 208.023438 204.277344 213.523438 189.351562 204.097656 L 179.925781 198.074219 L 216.585938 198.335938 C 239.886719 198.597656 253.503906 198.859375 254.289062 199.648438 C 255.074219 200.433594 254.289062 202.003906 252.457031 204.882812 L 249.574219 209.074219 L 249.574219 257.511719 C 249.574219 311.449219 249.574219 312.234375 255.859375 319.566406 C 260.308594 324.800781 266.332031 327.160156 275.496094 326.898438 C 287.800781 326.898438 294.347656 322.96875 298.539062 313.804688 L 300.894531 308.832031 L 300.894531 209.335938 L 297.753906 204.882812 L 294.609375 200.433594 L 296.96875 199.382812 C 298.800781 198.597656 315.558594 198.335938 355.617188 198.335938 L 411.910156 198.335938 L 414.269531 200.957031 C 415.578125 202.265625 431.027344 217.714844 448.832031 234.992188 L 481.296875 266.675781 L 481.296875 241.800781 C 481.296875 211.953125 481.820312 213.523438 467.421875 204.359375 L 457.996094 198.335938 L 548.066406 198.335938 L 541.78125 201.742188 C 538.375 203.574219 533.402344 206.453125 531.046875 208.023438 C 522.667969 213.261719 523.191406 207.238281 522.667969 292.335938 L 522.144531 367.742188 Z M 472.132812 318.78125 " fill-opacity="1" fill-rule="nonzero"/><path fill="#ffffff" d="M 612.996094 366.957031 C 605.929688 365.910156 594.144531 362.507812 586.816406 358.839844 C 562.988281 347.84375 546.753906 327.683594 540.992188 302.285156 C 538.636719 291.550781 538.898438 272.699219 541.515625 261.699219 C 549.894531 227.664062 576.601562 203.574219 612.472656 198.074219 C 621.375 196.765625 639.179688 196.765625 650.441406 198.597656 C 660.390625 200.167969 680.550781 204.359375 681.335938 205.144531 C 681.597656 205.40625 682.90625 215.09375 683.953125 226.613281 C 685.261719 238.136719 686.3125 249.65625 686.835938 252.011719 L 687.359375 256.726562 L 681.597656 252.796875 C 674.265625 247.824219 659.605469 241.015625 651.75 238.921875 C 643.109375 236.824219 626.351562 236.039062 619.019531 237.351562 C 601.214844 240.753906 590.480469 252.273438 586.8125 271.386719 C 585.242188 280.027344 585.765625 291.550781 588.125 300.453125 C 591.265625 312.234375 599.382812 321.398438 610.378906 325.585938 C 617.1875 328.207031 633.421875 329.253906 641.539062 327.417969 L 647.035156 326.371094 L 647.035156 311.449219 C 647.035156 303.070312 646.511719 294.953125 645.988281 293.121094 C 644.679688 288.667969 641.800781 286.050781 631.0625 279.765625 L 622.421875 274.53125 L 655.414062 274.269531 C 686.308594 274.007812 698.617188 274.792969 698.617188 276.886719 C 698.617188 277.148438 697.308594 279.503906 695.738281 281.863281 L 692.855469 286.050781 L 692.855469 315.636719 C 692.855469 343.128906 692.855469 345.488281 694.6875 348.890625 C 695.738281 350.984375 697.046875 352.816406 697.570312 353.339844 C 699.402344 354.390625 698.617188 355.699219 696 356.746094 C 689.453125 359.363281 663.269531 365.386719 653.058594 366.695312 C 643.371094 367.480469 620.328125 367.742188 612.996094 366.957031 Z M 612.996094 366.957031 " fill-opacity="1" fill-rule="nonzero"/><path fill="#ffffff" d="M 1147.136719 318.519531 L 1097.386719 269.816406 L 1097.125 306.734375 C 1096.863281 339.464844 1097.125 344.179688 1098.433594 347.058594 C 1099.746094 349.675781 1102.363281 351.769531 1111.265625 357.007812 L 1122.523438 363.816406 L 1076.441406 363.816406 C 1037.691406 363.816406 1030.882812 363.554688 1032.453125 362.507812 C 1033.5 361.71875 1037.691406 359.363281 1041.617188 357.007812 C 1045.546875 354.652344 1049.734375 352.03125 1051.042969 350.984375 C 1056.019531 346.535156 1056.019531 347.320312 1056.019531 282.125 C 1056.019531 248.871094 1055.496094 219.808594 1055.234375 217.710938 C 1054.1875 213 1050.78125 209.597656 1041.355469 203.050781 L 1033.761719 197.8125 L 1087.175781 197.8125 L 1121.738281 231.851562 C 1140.851562 250.441406 1156.5625 265.628906 1157.085938 265.105469 C 1158.132812 264.058594 1157.871094 225.566406 1156.824219 219.285156 C 1155.777344 212.476562 1154.207031 210.644531 1143.207031 203.574219 C 1138.496094 200.695312 1134.832031 198.074219 1134.832031 197.8125 C 1134.832031 197.550781 1154.730469 197.550781 1179.078125 197.550781 L 1223.328125 197.550781 L 1215.738281 202.003906 C 1206.308594 207.5 1202.382812 210.382812 1200.027344 213.785156 C 1198.457031 216.140625 1198.457031 222.425781 1197.933594 291.8125 L 1197.40625 367.21875 Z M 1147.136719 318.519531 " fill-opacity="1" fill-rule="nonzero"/><path fill="#ffffff" d="M 1255.796875 364.601562 C 1240.085938 362.246094 1229.089844 359.886719 1226.210938 358.578125 L 1223.851562 357.53125 L 1222.28125 327.945312 C 1221.496094 311.710938 1220.710938 298.09375 1220.972656 297.832031 C 1221.234375 297.570312 1227.519531 302.285156 1235.113281 307.78125 C 1256.320312 324.015625 1266.269531 328.207031 1281.71875 328.207031 C 1295.332031 328.207031 1300.308594 324.800781 1300.308594 315.113281 C 1300.308594 310.925781 1299.785156 310.140625 1296.117188 306.734375 C 1292.453125 303.070312 1290.097656 302.285156 1273.863281 296.785156 C 1242.703125 286.574219 1230.921875 279.503906 1224.375 267.199219 C 1218.878906 257.25 1217.832031 247.300781 1220.449219 234.46875 C 1222.542969 224.519531 1225.949219 217.710938 1232.492188 210.644531 C 1242.441406 200.171875 1255.273438 195.195312 1275.171875 194.148438 C 1289.3125 193.363281 1309.996094 196.242188 1325.96875 200.957031 L 1330.941406 202.527344 L 1332.25 225.566406 C 1333.035156 238.136719 1333.300781 248.871094 1333.035156 249.132812 C 1332.773438 249.394531 1329.894531 248.085938 1327.015625 246.253906 C 1298.738281 229.234375 1261.558594 226.089844 1261.558594 241.015625 C 1261.558594 247.300781 1266.269531 249.917969 1288.789062 255.679688 C 1310.257812 261.175781 1322.039062 266.9375 1330.941406 275.839844 C 1351.105469 296 1350.578125 332.132812 1329.632812 350.199219 C 1312.613281 364.339844 1286.953125 369.3125 1255.796875 364.601562 Z M 1255.796875 364.601562 " fill-opacity="1" fill-rule="nonzero"/><path fill="#ffffff" d="M 946.835938 195.457031 C 938.980469 195.457031 931.125 196.242188 923.269531 197.8125 C 891.0625 204.621094 866.714844 227.925781 858.859375 259.867188 C 857.289062 266.675781 856.765625 270.863281 856.765625 281.601562 C 856.765625 297.832031 858.597656 305.949219 865.667969 320.089844 C 877.1875 343.390625 901.539062 360.410156 930.339844 364.863281 C 931.910156 365.125 940.027344 365.125 948.667969 365.125 C 966.210938 364.863281 973.804688 363.292969 986.894531 357.007812 C 1010.460938 346.011719 1025.121094 329.253906 1032.976562 305.164062 C 1036.382812 294.691406 1037.429688 274.269531 1035.070312 263.53125 C 1030.621094 242.324219 1018.578125 224.257812 1001.296875 212.214844 C 985.324219 201.21875 966.472656 195.457031 946.835938 195.457031 Z M 943.953125 235.515625 C 945.261719 235.515625 946.832031 235.515625 948.144531 235.515625 C 957.570312 235.777344 959.140625 236.304688 965.6875 239.445312 C 981.394531 246.777344 989.25 260.652344 989.25 280.289062 C 989.25 302.546875 977.730469 319.828125 959.664062 324.800781 C 924.054688 334.753906 896.5625 306.734375 904.417969 268.507812 C 907.035156 255.941406 912.535156 247.300781 921.699219 241.277344 C 928.242188 237.089844 934.265625 235.515625 943.953125 235.515625 Z M 943.953125 235.515625 " fill-opacity="1" fill-rule="nonzero"/><path fill="#ffffff" d="M 5.285156 188.648438 C 5.285156 188.648438 5.023438 188.648438 5.285156 188.648438 C 4.238281 189.695312 7.640625 199.121094 11.308594 205.144531 C 15.234375 211.953125 17.851562 214.570312 25.707031 221.117188 C 36.179688 229.757812 35.394531 223.472656 35.394531 288.667969 C 35.394531 355.175781 36.964844 347.582031 21.519531 356.746094 C 16.019531 359.886719 11.570312 362.769531 11.042969 363.292969 C 9.996094 364.339844 96.925781 363.816406 108.445312 362.769531 C 129.65625 360.9375 142.746094 355.699219 158.71875 342.867188 C 176.261719 328.730469 186.210938 305.949219 186.472656 280.816406 C 186.472656 274.007812 185.949219 266.414062 185.164062 262.488281 C 178.355469 231.066406 156.101562 208.289062 124.15625 200.171875 C 119.179688 198.859375 109.492188 198.335938 75.71875 197.8125 C 26.492188 197.027344 19.421875 195.980469 9.210938 189.957031 C 7.378906 189.171875 5.808594 188.648438 5.285156 188.648438 Z M 80.691406 237.089844 L 95.878906 237.613281 C 114.46875 238.136719 119.707031 239.707031 127.296875 247.300781 C 135.152344 255.15625 139.34375 266.675781 139.34375 280.550781 C 139.34375 299.667969 131.75 314.066406 118.132812 320.351562 C 112.375 322.96875 111.328125 323.230469 96.402344 323.492188 L 80.953125 323.753906 L 80.953125 237.089844 Z M 80.691406 237.089844 " fill-opacity="1" fill-rule="nonzero"/><path fill="#ffffff" d="M 711.707031 357.007812 C 720.871094 351.507812 723.230469 349.675781 724.539062 347.058594 C 725.585938 344.441406 725.847656 333.441406 725.585938 279.765625 C 725.324219 204.882812 726.894531 213.785156 711.96875 204.097656 L 702.542969 198.074219 L 832.9375 198.074219 L 833.460938 201.21875 C 834.507812 207.238281 837.910156 247.039062 837.648438 247.824219 C 837.386719 248.347656 834.507812 246.515625 831.105469 244.15625 C 827.699219 241.539062 822.988281 238.921875 820.894531 238.398438 C 818.535156 237.875 807.277344 237.351562 794.1875 237.351562 L 771.667969 237.351562 L 771.667969 259.34375 L 795.757812 259.082031 C 816.703125 258.820312 820.371094 258.558594 822.988281 256.988281 L 826.128906 255.15625 L 826.128906 305.425781 L 819.320312 298.617188 L 795.496094 298.355469 L 771.667969 298.09375 L 771.667969 323.230469 L 796.542969 323.230469 C 811.207031 323.230469 823.511719 322.707031 826.390625 322.183594 C 829.796875 321.398438 834.246094 319.304688 840.269531 315.113281 C 845.242188 311.710938 848.910156 309.617188 848.910156 310.140625 C 848.648438 310.664062 846.027344 322.183594 843.148438 335.800781 C 840.269531 349.152344 837.652344 360.933594 837.386719 361.980469 C 836.863281 363.554688 832.9375 363.554688 768.789062 363.554688 L 700.449219 363.554688 Z M 711.707031 357.007812 " fill-opacity="1" fill-rule="nonzero"/><path fill="#ffffff" d="M 1236.339844 515.191406 L 1186.980469 466.964844 L 1186.980469 504.410156 C 1186.980469 538.453125 1186.980469 541.859375 1188.679688 544.695312 C 1189.816406 546.398438 1194.355469 549.800781 1200.597656 553.773438 L 1210.808594 560.015625 L 1188.113281 560.015625 C 1175.632812 560.015625 1155.207031 560.015625 1143.289062 560.015625 L 1120.59375 560.015625 L 1130.808594 553.773438 C 1136.480469 550.367188 1142.15625 546.398438 1143.289062 544.695312 C 1144.992188 541.859375 1144.992188 540.722656 1145.558594 483.417969 C 1145.558594 451.078125 1145.558594 422.707031 1144.992188 419.304688 C 1144.425781 411.359375 1142.15625 408.523438 1131.941406 401.148438 L 1123.433594 395.472656 L 1176.765625 395.472656 L 1194.921875 413.628906 C 1205.136719 423.273438 1220.453125 438.59375 1229.53125 447.671875 L 1245.988281 464.125 L 1245.988281 439.160156 C 1245.988281 409.089844 1246.554688 410.792969 1232.371094 401.714844 L 1222.722656 395.472656 L 1312.371094 395.472656 L 1306.128906 398.878906 C 1302.726562 400.578125 1297.617188 403.417969 1295.347656 405.117188 C 1286.839844 410.226562 1287.40625 403.984375 1286.839844 489.089844 L 1286.269531 563.984375 Z M 1236.339844 515.191406 " fill-opacity="1" fill-rule="nonzero"/><path fill="#ffffff" d="M 850.519531 561.714844 C 819.882812 556.042969 797.753906 540.15625 785.839844 515.191406 C 772.789062 487.957031 775.058594 455.046875 791.511719 430.082031 C 803.429688 411.925781 822.152344 400.011719 845.980469 394.339844 C 855.628906 392.070312 879.457031 392.070312 891.371094 394.339844 C 902.152344 396.039062 918.605469 400.011719 919.175781 400.578125 C 919.742188 401.148438 924.847656 450.507812 924.847656 451.078125 C 924.847656 451.078125 920.875 448.808594 916.335938 445.96875 C 901.585938 436.324219 886.832031 431.785156 869.8125 431.785156 C 860.734375 431.785156 857.898438 432.351562 852.222656 434.054688 C 832.363281 440.296875 822.152344 459.585938 824.988281 485.6875 C 827.824219 510.652344 841.441406 523.132812 867.542969 523.132812 C 872.648438 523.132812 878.890625 522.566406 881.160156 522 L 885.132812 520.863281 L 885.132812 505.546875 C 885.132812 496.46875 884.5625 488.523438 883.996094 486.820312 C 882.863281 483.984375 881.160156 482.28125 874.351562 477.742188 C 869.8125 474.339844 864.707031 471.503906 864.136719 470.933594 C 863.003906 469.800781 869.8125 469.800781 898.75 469.800781 C 923.714844 469.800781 935.628906 470.367188 936.195312 470.933594 C 936.761719 471.503906 936.195312 473.203125 934.492188 476.609375 L 931.65625 481.148438 L 931.65625 541.289062 L 934.492188 545.828125 L 937.332031 550.367188 L 926.550781 553.207031 C 920.875 554.90625 912.933594 556.609375 910.097656 557.746094 C 893.074219 561.714844 863.003906 563.984375 850.519531 561.714844 Z M 850.519531 561.714844 " fill-opacity="1" fill-rule="nonzero"/><path fill="#ffffff" d="M 1034.921875 393.203125 C 1007.6875 393.203125 988.960938 401.148438 970.804688 418.734375 C 962.863281 426.679688 960.59375 429.515625 956.621094 436.890625 C 954.351562 441.429688 950.949219 449.375 949.8125 453.914062 C 947.542969 461.855469 946.976562 463.558594 946.976562 478.3125 C 946.976562 492.496094 946.976562 494.765625 949.8125 502.707031 C 960.027344 536.183594 987.828125 558.3125 1025.273438 562.285156 C 1034.351562 563.417969 1044.566406 562.851562 1054.777344 560.582031 C 1073.503906 557.175781 1089.390625 548.667969 1102.4375 535.050781 C 1113.21875 523.703125 1118.894531 513.488281 1122.863281 498.738281 C 1124.566406 492.496094 1125.132812 488.523438 1125.132812 476.609375 C 1125.132812 464.125 1124.566406 461.289062 1122.296875 453.914062 C 1115.488281 431.785156 1101.304688 414.765625 1080.878906 403.984375 C 1066.125 396.039062 1053.078125 393.203125 1034.921875 393.203125 Z M 1035.488281 432.351562 C 1057.617188 432.351562 1072.933594 444.269531 1078.042969 465.261719 C 1083.714844 489.660156 1071.800781 514.054688 1051.375 521.433594 C 1040.027344 525.402344 1026.410156 524.269531 1016.195312 519.730469 C 1002.578125 512.921875 994.070312 497.601562 994.070312 478.878906 C 993.5 449.375 1009.386719 432.351562 1035.488281 432.351562 Z M 1035.488281 432.351562 " fill-opacity="1" fill-rule="nonzero"/><path fill="#ffffff" d="M 1346.980469 561.714844 C 1334.5 560.015625 1322.582031 557.746094 1316.910156 556.042969 C 1312.371094 554.90625 1311.804688 554.339844 1311.804688 551.503906 C 1311.804688 549.800781 1311.234375 536.75 1310.101562 523.132812 C 1309.535156 508.949219 1308.964844 497.035156 1308.964844 495.898438 C 1308.964844 494.765625 1312.9375 497.035156 1322.015625 503.84375 C 1343.578125 520.296875 1353.789062 524.835938 1367.972656 524.835938 C 1381.589844 524.835938 1386.699219 522 1387.832031 514.054688 C 1388.96875 504.410156 1383.292969 500.4375 1360.03125 493.0625 C 1343.007812 487.390625 1328.257812 481.148438 1322.015625 476.042969 C 1312.9375 468.664062 1306.695312 456.183594 1306.695312 443.132812 C 1306.695312 418.167969 1320.882812 400.011719 1345.277344 393.769531 C 1354.355469 391.5 1371.945312 390.933594 1384.429688 392.636719 C 1397.476562 394.339844 1415.632812 398.878906 1416.769531 400.011719 C 1417.335938 400.578125 1419.605469 431.785156 1420.171875 444.835938 L 1420.171875 447.671875 L 1417.335938 445.96875 C 1412.796875 442.566406 1397.476562 435.191406 1390.101562 432.917969 C 1365.707031 424.976562 1343.011719 429.515625 1348.683594 441.429688 C 1350.386719 445.402344 1355.492188 447.671875 1375.351562 452.777344 C 1396.34375 458.453125 1407.125 462.992188 1416.203125 472.070312 C 1429.253906 484.550781 1434.925781 502.707031 1430.953125 520.296875 C 1426.414062 541.289062 1412.230469 554.339844 1388.402344 560.582031 C 1378.753906 562.851562 1359.464844 563.417969 1346.980469 561.714844 Z M 1346.980469 561.714844 " fill-opacity="1" fill-rule="nonzero"/><path fill="#ffffff" d="M 655.339844 395.472656 L 661.582031 401.714844 C 666.121094 405.6875 667.824219 408.523438 667.824219 410.226562 C 667.824219 413.0625 617.894531 532.78125 616.757812 532.78125 C 615.625 532.78125 600.304688 514.625 587.253906 496.46875 C 578.175781 484.550781 577.609375 483.417969 578.746094 482.28125 C 579.878906 481.714844 583.285156 478.3125 586.6875 474.90625 C 592.929688 468.664062 597.46875 461.289062 599.171875 453.914062 C 600.304688 448.808594 600.304688 436.890625 599.171875 431.21875 C 596.332031 419.304688 586.6875 407.386719 575.90625 402.28125 C 562.859375 396.039062 562.289062 396.039062 515.199219 396.039062 C 491.367188 396.039062 469.238281 396.039062 466.402344 396.039062 L 461.296875 396.609375 L 470.941406 402.28125 C 476.046875 405.6875 481.15625 409.65625 482.289062 410.792969 C 483.992188 413.0625 483.992188 416.464844 484.558594 475.472656 C 484.558594 509.515625 484.558594 539.019531 484.558594 540.722656 C 483.425781 545.261719 480.019531 549.234375 469.238281 555.476562 L 459.59375 561.148438 L 553.78125 561.148438 L 545.835938 556.609375 C 535.054688 550.9375 531.652344 548.097656 529.949219 544.695312 C 527.679688 540.722656 527.113281 498.738281 528.816406 498.738281 C 532.785156 498.738281 535.054688 501.003906 575.339844 550.367188 L 584.417969 561.714844 L 674.066406 561.714844 L 669.527344 557.746094 C 658.179688 548.097656 657.609375 546.964844 661.582031 537.320312 L 663.851562 532.210938 L 723.996094 532.210938 L 726.265625 537.886719 C 727.398438 541.289062 727.964844 544.695312 727.964844 546.398438 C 727.398438 547.53125 724.5625 552.070312 721.15625 555.476562 L 714.917969 561.714844 L 756.902344 561.714844 C 780.164062 561.714844 798.890625 561.714844 798.890625 561.148438 C 798.890625 561.148438 794.917969 557.175781 789.242188 553.207031 C 784.136719 549.234375 778.464844 543.558594 776.761719 541.289062 C 775.058594 539.019531 761.441406 505.546875 746.121094 466.964844 L 718.886719 395.472656 Z M 528.246094 427.8125 L 536.191406 427.8125 C 542.433594 427.8125 544.703125 428.382812 548.105469 430.082031 C 554.347656 433.488281 556.050781 436.324219 556.050781 443.699219 C 556.050781 455.613281 551.511719 463.558594 543.566406 465.828125 C 539.59375 466.960938 529.949219 467.53125 528.816406 466.394531 C 528.246094 465.828125 528.246094 457.316406 528.246094 447.105469 Z M 695.058594 451.644531 C 695.058594 451.644531 695.625 451.644531 695.058594 451.644531 C 696.191406 452.210938 710.378906 490.792969 710.378906 491.929688 C 710.378906 492.496094 703.570312 492.496094 694.492188 492.496094 C 685.414062 492.496094 679.171875 491.929688 679.171875 491.929688 C 679.171875 490.792969 694.492188 452.210938 695.058594 451.644531 Z M 695.058594 451.644531 " fill-opacity="1" fill-rule="nonzero"/><path fill="#ffffff" d="M 340.445312 496.46875 C 305.265625 498.167969 275.761719 527.671875 259.875 548.097656 C 262.710938 549.234375 265.550781 550.367188 268.386719 552.636719 C 271.789062 555.476562 276.328125 558.878906 281.4375 563.417969 C 285.40625 554.339844 295.054688 536.183594 309.238281 519.730469 C 322.289062 504.976562 346.117188 503.277344 358.03125 512.355469 C 365.976562 505.546875 390.941406 499.304688 405.125 503.277344 C 396.613281 494.195312 378.457031 481.714844 358.601562 481.714844 C 342.144531 481.714844 333.066406 489.65625 330.796875 486.253906 C 327.960938 481.714844 342.144531 474.90625 342.144531 474.90625 C 322.855469 475.472656 308.671875 498.167969 302.996094 495.332031 C 299.59375 493.628906 308.101562 482.851562 308.101562 482.851562 C 290.515625 493.0625 275.761719 514.625 272.359375 527.671875 C 288.246094 507.816406 319.449219 493.628906 340.445312 496.46875 Z M 340.445312 496.46875 " fill-opacity="1" fill-rule="nonzero"/><path fill="#ffffff" d="M 125.972656 434.054688 C 123.703125 407.957031 135.617188 393.769531 141.292969 388.097656 C 153.207031 375.613281 169.660156 368.238281 194.058594 369.375 C 232.074219 371.640625 250.230469 397.742188 250.230469 426.679688 C 250.230469 440.296875 243.421875 459.019531 233.777344 472.070312 C 233.207031 471.5 232.640625 470.933594 232.074219 470.367188 C 230.371094 468.664062 228.101562 466.394531 225.832031 464.695312 C 219.589844 459.019531 212.78125 452.210938 207.675781 445.402344 C 217.890625 426.113281 212.214844 398.878906 190.085938 398.878906 C 177.039062 398.878906 166.257812 410.792969 167.390625 426.679688 C 163.988281 434.054688 162.285156 445.402344 162.851562 455.046875 C 156.613281 451.078125 150.9375 446.539062 148.667969 440.296875 L 140.726562 420.4375 L 134.484375 440.863281 C 132.78125 445.96875 132.78125 451.078125 133.347656 456.183594 C 130.511719 451.078125 127.109375 444.269531 125.972656 434.054688 " fill-opacity="1" fill-rule="nonzero"/><path fill="#ffffff" d="M 258.742188 510.085938 C 257.605469 512.921875 253.066406 518.027344 249.09375 519.164062 C 249.664062 514.054688 245.691406 511.21875 242.855469 510.652344 C 244.554688 501.007812 240.585938 489.089844 226.96875 476.042969 C 215.621094 464.695312 194.058594 448.808594 194.625 428.382812 C 191.222656 432.921875 188.953125 445.402344 191.789062 452.777344 C 201.433594 464.125 221.292969 476.042969 226.398438 494.765625 C 217.320312 472.636719 174.769531 455.617188 177.039062 424.976562 C 171.929688 430.652344 168.527344 451.644531 173.066406 463.558594 C 181.007812 468.664062 188.386719 477.175781 189.519531 484.550781 C 182.144531 466.960938 150.9375 463.558594 142.425781 442.566406 C 140.15625 449.941406 141.292969 459.585938 145.832031 465.828125 C 145.832031 465.828125 137.886719 462.992188 122 463.558594 C 126.539062 465.261719 137.886719 475.472656 136.1875 481.714844 C 134.484375 487.957031 112.355469 494.765625 101.574219 505.546875 C 117.460938 502.140625 125.972656 504.976562 128.242188 511.785156 C 129.945312 516.324219 127.675781 523.132812 126.539062 531.078125 C 132.214844 524.835938 150.371094 512.355469 163.988281 509.515625 C 160.582031 508.382812 152.640625 506.679688 149.804688 506.679688 C 159.449219 494.765625 181.578125 490.792969 192.925781 494.199219 C 184.980469 493.628906 170.230469 497.601562 163.988281 502.707031 C 169.09375 503.84375 174.199219 504.976562 178.171875 506.679688 C 170.796875 509.515625 161.71875 518.027344 158.882812 527.671875 C 168.527344 520.863281 187.25 522.566406 190.085938 536.75 C 192.355469 546.398438 185.546875 554.339844 182.710938 556.042969 C 185.546875 556.609375 192.355469 556.042969 194.625 554.339844 C 193.492188 558.3125 187.816406 564.554688 184.414062 565.6875 C 194.625 565.6875 208.8125 559.445312 212.214844 549.800781 C 212.214844 549.800781 206.542969 551.503906 203.703125 549.234375 C 200.867188 546.394531 204.839844 534.480469 204.839844 534.480469 C 204.839844 534.480469 200.867188 539.585938 198.03125 536.75 C 194.625 533.347656 199.164062 522.566406 200.867188 519.730469 C 198.03125 518.59375 188.953125 517.460938 185.546875 518.027344 C 196.328125 514.054688 220.726562 511.785156 223.5625 516.890625 C 225.832031 520.863281 220.160156 528.808594 220.160156 528.808594 C 224.128906 528.238281 236.613281 528.808594 241.152344 533.914062 C 245.691406 539.585938 242.855469 546.394531 242.855469 546.394531 C 251.933594 541.289062 261.011719 525.402344 258.742188 510.085938 Z M 209.378906 491.929688 C 220.160156 495.898438 223.5625 506.679688 223.5625 506.679688 C 214.484375 506.679688 211.648438 499.871094 209.378906 491.929688 Z M 209.378906 491.929688 " fill-opacity="1" fill-rule="nonzero"/><path fill="#ffffff" d="M 390.941406 613.914062 C 390.941406 591.789062 369.378906 574.199219 345.550781 576.46875 C 352.359375 577.601562 362.003906 584.976562 362.003906 595.757812 C 362.003906 613.347656 340.445312 618.453125 328.527344 615.617188 C 341.011719 606.539062 339.308594 581.574219 324.558594 572.496094 C 329.664062 586.679688 314.34375 600.863281 299.59375 588.382812 C 291.082031 581.574219 272.359375 565.121094 263.847656 558.3125 C 255.335938 551.503906 245.125 555.472656 241.152344 552.070312 C 236.613281 548.664062 239.449219 539.019531 233.207031 535.046875 C 228.101562 532.210938 222.996094 533.914062 216.753906 531.644531 C 211.082031 529.941406 207.109375 525.402344 208.242188 519.730469 C 205.972656 523.699219 205.972656 531.078125 209.945312 536.183594 C 213.917969 540.722656 220.726562 544.125 223.5625 549.234375 C 226.96875 556.042969 221.292969 565.6875 237.179688 578.738281 C 245.125 584.976562 257.039062 595.191406 264.980469 602 C 278.03125 613.914062 271.222656 628.667969 272.925781 641.148438 C 275.195312 655.902344 286.542969 664.410156 294.484375 666.679688 C 287.675781 660.441406 284.839844 644.554688 294.484375 634.90625 C 295.054688 647.390625 304.132812 667.25 323.988281 672.355469 C 345.550781 678.027344 368.246094 665.546875 373.351562 657.035156 C 364.839844 661.007812 349.523438 656.46875 342.714844 650.792969 C 368.246094 654.765625 390.941406 636.609375 390.941406 613.914062 Z M 390.941406 613.914062 " fill-opacity="1" fill-rule="nonzero"/><path fill="#ffffff" d="M 259.875 608.242188 C 253.066406 602 242.855469 593.488281 235.476562 587.816406 C 226.96875 602.566406 208.242188 622.425781 190.085938 622.425781 C 156.042969 622.425781 138.457031 573.0625 177.039062 532.78125 C 174.769531 532.210938 172.5 532.210938 171.929688 532.210938 C 168.527344 532.210938 165.691406 533.347656 163.421875 534.480469 L 148.101562 545.261719 L 151.503906 525.96875 C 152.074219 524.835938 152.074219 523.699219 152.640625 523.132812 C 144.128906 527.671875 135.050781 533.914062 132.214844 537.316406 L 117.460938 553.773438 L 119.164062 530.507812 C 119.730469 528.808594 119.730469 527.105469 120.300781 525.402344 C 120.867188 521.429688 122 516.890625 121.433594 515.191406 C 121.433594 514.621094 120.867188 514.054688 120.300781 514.054688 C 113.492188 519.730469 93.632812 537.316406 91.363281 562.851562 C 91.363281 562.851562 95.335938 557.175781 98.171875 556.042969 C 100.441406 555.472656 102.144531 556.042969 99.875 562.851562 C 99.304688 565.121094 80.582031 616.75 117.460938 652.496094 C 117.460938 652.496094 113.492188 641.714844 115.761719 638.878906 C 116.894531 637.175781 118.597656 637.175781 120.867188 640.015625 C 122.570312 642.285156 124.269531 643.984375 125.972656 646.257812 C 128.808594 649.660156 132.214844 653.0625 136.1875 655.902344 C 146.964844 663.84375 162.285156 670.085938 179.308594 670.085938 C 224.699219 670.085938 249.09375 638.3125 262.710938 611.078125 C 261.011719 609.375 260.441406 608.808594 259.875 608.242188 " fill-opacity="1" fill-rule="nonzero"/><path fill="#ffffff" d="M 359.167969 469.234375 L 341.578125 469.800781 C 332.5 470.367188 324.558594 474.90625 317.75 479.445312 C 317.75 478.3125 317.75 477.742188 317.75 476.609375 L 325.691406 466.394531 L 317.75 470.933594 C 317.75 420.4375 317.75 425.542969 308.101562 417.035156 C 300.160156 410.792969 297.890625 407.957031 293.917969 401.148438 C 290.515625 395.472656 287.109375 385.828125 287.675781 384.691406 C 288.246094 384.691406 289.945312 385.261719 291.082031 386.394531 C 301.292969 392.636719 308.671875 393.203125 357.464844 394.339844 C 391.507812 394.90625 401.152344 395.472656 405.691406 396.609375 C 437.464844 404.550781 460.160156 427.246094 466.402344 459.019531 C 467.539062 462.992188 468.105469 470.367188 468.105469 477.175781 C 468.105469 502.140625 457.890625 525.402344 440.304688 539.019531 C 424.417969 552.070312 411.367188 557.175781 390.375 558.878906 C 378.457031 560.011719 292.214844 560.011719 292.785156 559.445312 C 293.351562 558.878906 297.890625 556.042969 302.996094 553.203125 C 314.910156 545.828125 316.613281 549.234375 316.613281 518.027344 C 322.289062 514.054688 329.664062 511.21875 337.039062 511.21875 C 337.039062 511.21875 351.222656 511.785156 358.601562 520.296875 L 377.324219 519.730469 C 392.074219 519.160156 393.210938 519.160156 398.882812 516.890625 C 412.5 510.652344 420.445312 496.464844 419.878906 477.175781 C 419.878906 462.992188 415.90625 451.644531 407.960938 443.699219 C 400.585938 436.324219 394.914062 434.621094 376.757812 434.054688 L 361.4375 433.488281 L 361.4375 477.175781 C 359.734375 477.175781 358.03125 477.175781 356.332031 477.175781 C 349.523438 477.175781 346.117188 477.742188 342.144531 478.878906 C 343.847656 478.878906 349.523438 472.070312 359.167969 469.234375 Z M 359.167969 469.234375 " fill-opacity="1" fill-rule="nonzero"/></svg>